<svg id="visual-3434" viewBox="0 00 900 600" width="600" height="650" xmlns="http://www.w3.org/2000/svg" xmlns:xlink="http://www.w3.org/1999/xlink" version="1.1">
  <style>
    #visual-3434 path{
      transform: rotateZ(-20deg) scale(1.5);
      transform-origin: 50% 50%;
    } 
  </style>
  <rect x="0" y="-190" width="900" height="300" fill="#0d1117" ></rect>
  <rect x="0" y="500" width="900" height="600" fill="#c9d1d9"></rect>
  <path d="M0 109L25 120C50 131 100 153 150 160C200 167 250 159 300 150C350 141 400 131 450 136C500 141 550 161 600 167C650 173 700 165 750 164C800 163 850 169 875 172L900 175L900 0L875 0C850 0 800 0 750 0C700 0 650 0 600 0C550 0 500 0 450 0C400 0 350 0 300 0C250 0 200 0 150 0C100 0 50 0 25 0L0 0Z" fill="#0d1117"></path>
  <path d="M0 187L25 190C50 193 100 199 150 203C200 207 250 209 300 205C350 201 400 191 450 203C500 215 550 249 600 266C650 283 700 283 750 285C800 287 850 291 875 293L900 295L900 173L875 170C850 167 800 161 750 162C700 163 650 171 600 165C550 159 500 139 450 134C400 129 350 139 300 148C250 157 200 165 150 158C100 151 50 129 25 118L0 107Z" fill="#454a50"></path>
  <path d="M0 313L25 315C50 317 100 321 150 315C200 309 250 293 300 289C350 285 400 293 450 320C500 347 550 393 600 403C650 413 700 387 750 379C800 371 850 381 875 386L900 391L900 293L875 291C850 289 800 285 750 283C700 281 650 281 600 264C550 247 500 213 450 201C400 189 350 199 300 203C250 207 200 205 150 201C100 197 50 191 25 188L0 185Z" fill="#848a92"></path>
  <path d="M0 493L25 495C50 497 100 501 150 512C200 523 250 541 300 538C350 535 400 511 450 512C500 513 550 539 600 546C650 553 700 541 750 531C800 521 850 513 875 509L900 505L900 389L875 384C850 379 800 369 750 377C700 385 650 411 600 401C550 391 500 345 450 318C400 291 350 283 300 287C250 291 200 307 150 313C100 319 50 315 25 313L0 311Z" fill="#c9d1d9"></path>
</svg>
